 http://www.grinshare.com/img/DOKEZG.png
 
http://www.grinshare.com/img/JM24HW.jpg
 
http://www.grinshare.com/img/K1PR7C.png
 
http://www.grinshare.com/img/TJXHNA.png
 
http://www.grinshare.com/img/NJKEUN.png
 
http://www.grinshare.com/img/PUIJNF.png
 
http://www.grinshare.com/img/PVE1V9.png


Video
ID : 0
Format : MPEG-4 Visual
Format profile : Advanced Simple@L5
Format settings, BVOP : Yes
Format settings, QPel : No
Format settings, GMC : No warppoints
Format settings, Matrix : Custom
Codec ID : XVID
Codec ID/Hint : XviD
Duration : 1h 9mn
Bit rate : 1 108 Kbps
Width : 680 pixels
Height : 374 pixels
Display aspect ratio : 16:9
Frame rate : 23.976 fps
Color space : YUV
Chroma subsampling : 4:2:0
Bit depth : 8 bits
Scan type : Progressive
Bits/(Pixel*Frame) : 0.182
Stream size : 551 MiB (89%)
Writing library : XviD 1.2.1 (UTC 2008-12-04)

Audio
ID : 1
Format : MPEG Audio
Format version : Version 1
Format profile : Layer 3
Mode : Joint stereo
Codec ID : 55
Codec ID/Hint : MP3
Duration : 1h 9mn
Bit rate mode : Constant
Bit rate : 128 Kbps
Channel(s) : 2 channels
Sampling rate : 44.1 KHz
Stream size : 63.7 MiB (10%)
Alignment : Split accross interleaves
Interleave, duration : 42 ms (1.00 video frame)
Interleave, preload duration : 500 ms



In 2006, the president of the United States is assassinated and while most of the population eventually settles back into their everyday life and routines, a small group of Satanists take the assassination as a sign. The leader of this satanic group, Marcus (writer/ director/producer Ron DeCaro) moves into his fatherâ™s old house along with his wife and daughter (Ronâ™s real life wife and daughter) who are as equally demented and murderous as he is. Marcus and his friend Roland (D. Whitney) commit a series of brutal and grisly murders in an attempt to do what Marcusâ™ father failed to do years ago: open the ultimate portal to hell and unleash its infernal evil upon the entire world!
